<svg width="45" height="45" viewBox="0 0 45 45" fill="none" xmlns="http://www.w3.org/2000/svg">
<path d="M11.827 40.3125C10.8798 40.3125 10.0781 39.9844 9.42188 39.3281C8.76562 38.6719 8.4375 37.8702 8.4375 36.923V15.577C8.4375 14.6298 8.76562 13.8281 9.42188 13.1719C10.0781 12.5156 10.8798 12.1875 11.827 12.1875H15.4688V11.7188C15.4688 9.77656 16.155 8.11906 17.5275 6.74625C18.9003 5.37375 20.5578 4.6875 22.5 4.6875C24.4422 4.6875 26.0997 5.37375 27.4725 6.74625C28.845 8.11906 29.5312 9.77656 29.5312 11.7188V12.1875H33.173C34.1202 12.1875 34.9219 12.5156 35.5781 13.1719C36.2344 13.8281 36.5625 14.6298 36.5625 15.577V36.923C36.5625 37.8702 36.2344 38.6719 35.5781 39.3281C34.9219 39.9844 34.1202 40.3125 33.173 40.3125H11.827ZM11.827 37.5H33.173C33.3173 37.5 33.4495 37.4398 33.5695 37.3195C33.6898 37.1995 33.75 37.0673 33.75 36.923V15.577C33.75 15.4327 33.6898 15.3005 33.5695 15.1805C33.4495 15.0602 33.3173 15 33.173 15H29.5312V19.2188C29.5312 19.6178 29.3966 19.9519 29.1272 20.2209C28.8581 20.4903 28.5241 20.625 28.125 20.625C27.7259 20.625 27.3919 20.4903 27.1228 20.2209C26.8534 19.9519 26.7188 19.6178 26.7188 19.2188V15H18.2812V19.2188C18.2812 19.6178 18.1466 19.9519 17.8772 20.2209C17.6081 20.4903 17.2741 20.625 16.875 20.625C16.4759 20.625 16.1419 20.4903 15.8728 20.2209C15.6034 19.9519 15.4688 19.6178 15.4688 19.2188V15H11.827C11.6827 15 11.5505 15.0602 11.4305 15.1805C11.3102 15.3005 11.25 15.4327 11.25 15.577V36.923C11.25 37.0673 11.3102 37.1995 11.4305 37.3195C11.5505 37.4398 11.6827 37.5 11.827 37.5ZM18.2812 12.1875H26.7188V11.7188C26.7188 10.5434 26.3095 9.54641 25.4911 8.72766C24.6727 7.90922 23.6756 7.5 22.5 7.5C21.3244 7.5 20.3273 7.90922 19.5089 8.72766C18.6905 9.54641 18.2812 10.5434 18.2812 11.7188V12.1875Z" fill="#1F1F1F"/>
</svg>
