<svg width="17" height="20" viewBox="0 0 17 20" fill="none" xmlns="http://www.w3.org/2000/svg">
<path d="M1.80775 19.5C1.30258 19.5 0.875 19.325 0.525 18.975C0.175 18.625 0 18.1974 0 17.6923V4.30777C0 3.8026 0.175 3.37502 0.525 3.02502C0.875 2.67502 1.30258 2.50002 1.80775 2.50002H3.19225V0.384766H4.73075V2.50002H12.3077V0.384766H13.8077V2.50002H15.1923C15.6974 2.50002 16.125 2.67502 16.475 3.02502C16.825 3.37502 17 3.8026 17 4.30777V17.6923C17 18.1974 16.825 18.625 16.475 18.975C16.125 19.325 15.6974 19.5 15.1923 19.5H1.80775ZM1.80775 18H15.1923C15.2692 18 15.3398 17.9679 15.4038 17.9038C15.4679 17.8398 15.5 17.7693 15.5 17.6923V8.30777H1.5V17.6923C1.5 17.7693 1.53208 17.8398 1.59625 17.9038C1.66025 17.9679 1.73075 18 1.80775 18ZM1.5 6.80777H15.5V4.30777C15.5 4.23077 15.4679 4.16026 15.4038 4.09626C15.3398 4.0321 15.2692 4.00002 15.1923 4.00002H1.80775C1.73075 4.00002 1.66025 4.0321 1.59625 4.09626C1.53208 4.16026 1.5 4.23077 1.5 4.30777V6.80777Z" fill="#1F1F1F"/>
</svg>
