<svg width="30" height="27" viewBox="0 0 30 27" fill="none" xmlns="http://www.w3.org/2000/svg">
<path d="M3.12456 26.875V8.03333L0.189453 1.60856L2.33883 0.597992L5.72479 7.95416H24.2743L27.6603 0.597992L29.8097 1.60856L26.8746 8.03333V26.875H3.12456ZM11.8329 16.1875H18.1662C18.5027 16.1875 18.7846 16.0736 19.0121 15.8459C19.2399 15.6182 19.3537 15.3361 19.3537 14.9996C19.3537 14.6629 19.2399 14.3809 19.0121 14.1537C18.7846 13.9262 18.5027 13.8125 18.1662 13.8125H11.8329C11.4964 13.8125 11.2145 13.9264 10.987 14.1541C10.7593 14.3818 10.6454 14.6639 10.6454 15.0004C10.6454 15.3371 10.7593 15.6191 10.987 15.8463C11.2145 16.0738 11.4964 16.1875 11.8329 16.1875ZM5.49956 24.5H24.4996V10.3292H5.49956V24.5Z" fill="#073573"/>
</svg>
