<svg width="45" height="45" viewBox="0 0 45 45" fill="none" xmlns="http://www.w3.org/2000/svg">
<path d="M22.5 38.1127L20.4305 36.2522C17.3223 33.4325 14.752 31.0095 12.7195 28.9833C10.687 26.9567 9.07641 25.1531 7.88766 23.5725C6.69891 21.9922 5.86844 20.5505 5.39625 19.2473C4.92375 17.9445 4.6875 16.6225 4.6875 15.2812C4.6875 12.6203 5.58469 10.3925 7.37906 8.59781C9.17375 6.80344 11.4016 5.90625 14.0625 5.90625C15.6994 5.90625 17.2463 6.28906 18.7031 7.05469C20.16 7.82031 21.4256 8.91828 22.5 10.3486C23.5744 8.91828 24.84 7.82031 26.2969 7.05469C27.7537 6.28906 29.3006 5.90625 30.9375 5.90625C33.5984 5.90625 35.8263 6.80344 37.6209 8.59781C39.4153 10.3925 40.3125 12.6203 40.3125 15.2812C40.3125 16.6225 40.0763 17.9445 39.6038 19.2473C39.1316 20.5505 38.3011 21.9922 37.1123 23.5725C35.9236 25.1531 34.3159 26.9567 32.2894 28.9833C30.2631 31.0095 27.6898 33.4325 24.5695 36.2522L22.5 38.1127ZM22.5 34.3125C25.5 31.6131 27.9688 29.2994 29.9062 27.3713C31.8438 25.4434 33.375 23.7686 34.5 22.3467C35.625 20.9248 36.4062 19.6622 36.8438 18.5587C37.2812 17.4556 37.5 16.3631 37.5 15.2812C37.5 13.4062 36.875 11.8438 35.625 10.5938C34.375 9.34375 32.8125 8.71875 30.9375 8.71875C29.4569 8.71875 28.0884 9.13875 26.8322 9.97875C25.5763 10.8191 24.5817 11.988 23.8486 13.4855H21.1514C20.4061 11.9758 19.4084 10.8039 18.1584 9.96984C16.9084 9.13578 15.5431 8.71875 14.0625 8.71875C12.1994 8.71875 10.6398 9.34375 9.38391 10.5938C8.12797 11.8438 7.5 13.4062 7.5 15.2812C7.5 16.3631 7.71875 17.4556 8.15625 18.5587C8.59375 19.6622 9.375 20.9248 10.5 22.3467C11.625 23.7686 13.1562 25.4405 15.0938 27.3623C17.0312 29.2842 19.5 31.6009 22.5 34.3125Z" fill="#1F1F1F"/>
</svg>
