<svg width="28" height="28" viewBox="0 0 28 28" fill="none" xmlns="http://www.w3.org/2000/svg">
<path d="M6.28125 21.7187H16.8437V19.2812H6.28125V21.7187ZM6.28125 15.2188H21.7187V12.7812H6.28125V15.2188ZM6.28125 8.71875H21.7187V6.28125H6.28125V8.71875ZM3.12509 27.8125C2.3042 27.8125 1.60937 27.5281 1.04062 26.9594C0.471875 26.3906 0.1875 25.6958 0.1875 24.8749V3.12509C0.1875 2.3042 0.471875 1.60937 1.04062 1.04062C1.60937 0.471875 2.3042 0.1875 3.12509 0.1875H24.8749C25.6958 0.1875 26.3906 0.471875 26.9594 1.04062C27.5281 1.60937 27.8125 2.3042 27.8125 3.12509V24.8749C27.8125 25.6958 27.5281 26.3906 26.9594 26.9594C26.3906 27.5281 25.6958 27.8125 24.8749 27.8125H3.12509ZM3.12509 25.375H24.8749C25 25.375 25.1146 25.3229 25.2186 25.2186C25.3229 25.1146 25.375 25 25.375 24.8749V3.12509C25.375 2.99997 25.3229 2.88541 25.2186 2.78141C25.1146 2.67713 25 2.625 24.8749 2.625H3.12509C2.99997 2.625 2.88541 2.67713 2.78141 2.78141C2.67714 2.88541 2.625 2.99997 2.625 3.12509V24.8749C2.625 25 2.67714 25.1146 2.78141 25.2186C2.88541 25.3229 2.99997 25.375 3.12509 25.375Z" fill="#073573"/>
</svg>
