<svg width="33" height="32" viewBox="0 0 33 32" fill="none" xmlns="http://www.w3.org/2000/svg">
<path d="M27.8887 28.1634L28.932 27.1232L25.8241 24.0247V19.4139H24.3428V24.6283L27.8887 28.1634ZM3.82731 28.4042C2.99217 28.4042 2.27874 28.1094 1.687 27.5197C1.09554 26.9298 0.799805 26.2185 0.799805 25.3859V3.03832C0.799805 2.20572 1.09554 1.49444 1.687 0.904493C2.27874 0.314824 2.99217 0.019989 3.82731 0.019989H26.2428C27.078 0.019989 27.7914 0.314824 28.3831 0.904493C28.9746 1.49444 29.2703 2.20572 29.2703 3.03832V13.5989C28.8581 13.4233 28.4452 13.2746 28.0319 13.1527C27.6185 13.0306 27.1939 12.9332 26.7582 12.8605V3.03832C26.7582 2.90976 26.7045 2.79204 26.597 2.68519C26.4899 2.57805 26.3718 2.52448 26.2428 2.52448H3.82731C3.69836 2.52448 3.58029 2.57805 3.4731 2.68519C3.36564 2.79204 3.31191 2.90976 3.31191 3.03832V25.3859C3.31191 25.5145 3.36564 25.6322 3.4731 25.739C3.58029 25.8462 3.69836 25.8997 3.82731 25.8997H13.6375C13.6997 26.362 13.792 26.7991 13.9143 27.2113C14.0368 27.6234 14.186 28.0211 14.3618 28.4042H3.82731ZM3.31191 24.2301V25.8997V2.52448V12.8605V12.7353V24.2301ZM7.08007 21.9502H13.8079C13.881 21.5158 13.9895 21.0925 14.1332 20.6804C14.2772 20.2683 14.434 19.8568 14.6034 19.4461H7.08007V21.9502ZM7.08007 15.4644H17.6987C18.42 14.8544 19.1897 14.3433 20.0078 13.9312C20.8259 13.5191 21.7019 13.2263 22.6359 13.053V12.9599H7.08007V15.4644ZM7.08007 8.97814H22.9901V6.47407H7.08007V8.97814ZM25.0835 31.84C22.9923 31.84 21.2135 31.109 19.7469 29.6469C18.2804 28.1848 17.5472 26.4114 17.5472 24.3265C17.5472 22.2417 18.2804 20.4682 19.7469 19.0061C21.2135 17.5441 22.9923 16.813 25.0835 16.813C27.1747 16.813 28.9535 17.5441 30.42 19.0061C31.8866 20.4682 32.6198 22.2417 32.6198 24.3265C32.6198 26.4114 31.8866 28.1848 30.42 29.6469C28.9535 31.109 27.1747 31.84 25.0835 31.84Z" fill="#073573"/>
</svg>
