<svg width="35" height="25" viewBox="0 0 35 25" fill="none" xmlns="http://www.w3.org/2000/svg">
<path d="M10.2813 24.6875C9.04171 24.6875 7.98708 24.2525 7.11744 23.3826C6.24752 22.513 5.81256 21.4584 5.81256 20.2188H1.96903L2.51259 17.7812H6.65025C7.02725 17.1624 7.53506 16.6692 8.17369 16.3017C8.81204 15.9339 9.51458 15.75 10.2813 15.75C11.048 15.75 11.7507 15.9339 12.3893 16.3017C13.0277 16.6692 13.5355 17.1624 13.9128 17.7812H21.0563L24.5472 2.75H6.75344L6.85338 2.32506C6.97417 1.73329 7.26315 1.24999 7.72031 0.875155C8.17775 0.500051 8.71576 0.3125 9.33434 0.3125H27.5937L26.1844 6.40625H30.2501L34.8907 12.5938L33.375 20.2188H30.8124C30.8124 21.4584 30.3776 22.513 29.5079 23.3826C28.638 24.2525 27.5834 24.6875 26.344 24.6875C25.1044 24.6875 24.0497 24.2525 23.1798 23.3826C22.3101 22.513 21.8753 21.4584 21.8753 20.2188H14.7501C14.7501 21.4584 14.3151 22.513 13.4452 23.3826C12.5755 24.2525 11.5209 24.6875 10.2813 24.6875ZM24.3469 14.3281H32.047L32.272 13.178L29.0314 8.84375H25.625L24.3469 14.3281ZM24.3095 3.70631L24.5472 2.75L21.0563 17.7812L21.2939 16.8249L22.6281 11.0188L24.3095 3.70631ZM0.265625 14.3874L0.875 11.9499H8.98456L8.37519 14.3874H0.265625ZM3.51563 8.58131L4.125 6.14381H13.8596L13.2502 8.58131H3.51563ZM10.2813 22.25C10.846 22.25 11.3256 22.0526 11.7203 21.6577C12.1151 21.2631 12.3126 20.7834 12.3126 20.2188C12.3126 19.6541 12.1151 19.1744 11.7203 18.7798C11.3256 18.3849 10.846 18.1875 10.2813 18.1875C9.71663 18.1875 9.23698 18.3849 8.84237 18.7798C8.4475 19.1744 8.25006 19.6541 8.25006 20.2188C8.25006 20.7834 8.4475 21.2631 8.84237 21.6577C9.23698 22.0526 9.71663 22.25 10.2813 22.25ZM26.344 22.25C26.9084 22.25 27.3881 22.0526 27.783 21.6577C28.1778 21.2631 28.3753 20.7834 28.3753 20.2188C28.3753 19.6541 28.1778 19.1744 27.783 18.7798C27.3881 18.3849 26.9084 18.1875 26.344 18.1875C25.7793 18.1875 25.2996 18.3849 24.9047 18.7798C24.5098 19.1744 24.3124 19.6541 24.3124 20.2188C24.3124 20.7834 24.5098 21.2631 24.9047 21.6577C25.2996 22.0526 25.7793 22.25 26.344 22.25Z" fill="#073573"/>
</svg>
