<svg width="28" height="28" viewBox="0 0 28 28" fill="none" xmlns="http://www.w3.org/2000/svg">
<path d="M26.3051 27.4078L16.0097 17.1124C15.1876 17.8123 14.2422 18.3541 13.1734 18.7377C12.1046 19.1214 11.0307 19.3132 9.95152 19.3132C7.318 19.3132 5.0891 18.4016 3.26482 16.5784C1.44081 14.7552 0.528809 12.5277 0.528809 9.89583C0.528809 7.26368 1.4404 5.03423 3.26359 3.20748C5.08677 1.38101 7.3143 0.467773 9.94618 0.467773C12.5783 0.467773 14.8078 1.37978 16.6345 3.20378C18.461 5.02806 19.3742 7.25696 19.3742 9.89048C19.3742 11.033 19.1719 12.1386 18.7671 13.2073C18.3623 14.2761 17.8311 15.1899 17.1734 15.9487L27.4688 26.2445L26.3051 27.4078ZM9.95152 17.669C12.1331 17.669 13.975 16.918 15.477 15.4159C16.979 13.9142 17.73 12.0724 17.73 9.89048C17.73 7.70858 16.979 5.86676 15.477 4.36503C13.975 2.86302 12.1331 2.11201 9.95152 2.11201C7.76962 2.11201 5.9278 2.86302 4.42606 4.36503C2.92405 5.86676 2.17305 7.70858 2.17305 9.89048C2.17305 12.0724 2.92405 13.9142 4.42606 15.4159C5.9278 16.918 7.76962 17.669 9.95152 17.669Z" fill="#1F1F1F"/>
</svg>
