<svg width="45" height="45" viewBox="0 0 45 45" fill="none" xmlns="http://www.w3.org/2000/svg">
<path d="M36.6418 38.5819L24.8654 26.805C23.9279 27.5791 22.8498 28.1849 21.631 28.6224C20.4123 29.0599 19.1515 29.2786 17.8487 29.2786C14.644 29.2786 11.9318 28.1691 9.7121 25.95C7.49241 23.731 6.38257 21.0194 6.38257 17.8153C6.38257 14.6116 7.4921 11.8991 9.71116 9.67784C11.9302 7.4569 14.6418 6.34644 17.8458 6.34644C21.0496 6.34644 23.7621 7.45628 25.9833 9.67597C28.2043 11.8957 29.3148 14.6078 29.3148 17.8125C29.3148 19.1516 29.0901 20.4305 28.6407 21.6492C28.191 22.868 27.5912 23.928 26.8412 24.8292L38.6176 36.6057L36.6418 38.5819ZM17.8487 26.4666C20.2646 26.4666 22.3108 25.6282 23.9874 23.9513C25.6643 22.2747 26.5027 20.2285 26.5027 17.8125C26.5027 15.3966 25.6643 13.3503 23.9874 11.6738C22.3108 9.9969 20.2646 9.15847 17.8487 9.15847C15.4327 9.15847 13.3865 9.9969 11.7099 11.6738C10.033 13.3503 9.1946 15.3966 9.1946 17.8125C9.1946 20.2285 10.033 22.2747 11.7099 23.9513C13.3865 25.6282 15.4327 26.4666 17.8487 26.4666Z" fill="#1F1F1F"/>
</svg>
