<svg width="28" height="30" viewBox="0 0 28 30" fill="none" xmlns="http://www.w3.org/2000/svg">
<path d="M12.8118 26.9846V15.682L2.91602 9.95154V20.9802C2.91602 21.0613 2.93633 21.1374 2.97697 21.2086C3.01761 21.2796 3.07844 21.3405 3.15945 21.3911L12.8118 26.9846ZM15.1868 26.9846L24.8392 21.3911C24.9203 21.3405 24.9811 21.2796 25.0217 21.2086C25.0624 21.1374 25.0827 21.0613 25.0827 20.9802V9.95154L15.1868 15.682V26.9846ZM13.9993 13.636L23.7764 7.98465L14.2428 2.47029C14.1618 2.41963 14.0806 2.39429 13.9993 2.39429C13.9181 2.39429 13.8369 2.41963 13.7559 2.47029L4.22227 7.98465L13.9993 13.636ZM1.97235 23.4768C1.52163 23.2171 1.17039 22.8701 0.91864 22.4357C0.66689 22.0011 0.541016 21.524 0.541016 21.0044V8.9956C0.541016 8.47601 0.66689 7.9989 0.91864 7.56427C1.17039 7.12991 1.52163 6.78289 1.97235 6.52323L12.5684 0.42423C13.0189 0.164299 13.4958 0.0343323 13.9993 0.0343323C14.5028 0.0343323 14.9798 0.164299 15.4303 0.42423L26.0264 6.52323C26.4771 6.78289 26.8283 7.12991 27.0801 7.56427C27.3318 7.9989 27.4577 8.47601 27.4577 8.9956V21.0044C27.4577 21.524 27.3318 22.0011 27.0801 22.4357C26.8283 22.8701 26.4771 23.2171 26.0264 23.4768L15.4303 29.5758C14.9798 29.8357 14.5028 29.9657 13.9993 29.9657C13.4958 29.9657 13.0189 29.8357 12.5684 29.5758L1.97235 23.4768Z" fill="#073573"/>
</svg>
