<svg width="23" height="22" viewBox="0 0 23 22" fill="none" xmlns="http://www.w3.org/2000/svg">
<path d="M10.3287 1.56357C10.7954 0.127154 12.8275 0.127154 13.2943 1.56357L14.7868 6.15716C14.9955 6.79955 15.5942 7.23448 16.2696 7.23448H21.0996C22.6099 7.23448 23.2379 9.16717 22.016 10.0549L18.1085 12.8939C17.562 13.2909 17.3334 13.9947 17.5421 14.637L19.0346 19.2306C19.5014 20.6671 17.8573 21.8615 16.6354 20.9738L12.7279 18.1348C12.1814 17.7378 11.4415 17.7378 10.8951 18.1348L6.98752 20.9738C5.76563 21.8615 4.12158 20.6671 4.5883 19.2306L6.08085 14.637C6.28958 13.9947 6.06092 13.2909 5.51447 12.8939L1.60693 10.0549C0.385041 9.16717 1.01301 7.23448 2.52335 7.23448H7.35334C8.02878 7.23448 8.62741 6.79955 8.83613 6.15716L10.3287 1.56357Z" fill="#FFBE00"/>
</svg>
