<svg width="233" height="41" viewBox="0 0 233 41" fill="none" xmlns="http://www.w3.org/2000/svg">
<path d="M17.7775 6.83165C18.4 4.91579 21.1104 4.91579 21.7329 6.83165L23.7236 12.9585C24.002 13.8153 24.8004 14.3954 25.7013 14.3954H32.1434C34.1579 14.3954 34.9955 16.9731 33.3657 18.1572L28.1539 21.9438C27.4251 22.4733 27.1201 23.4119 27.3985 24.2687L29.3893 30.3955C30.0118 32.3114 27.819 33.9045 26.1892 32.7205L20.9775 28.9339C20.2486 28.4044 19.2617 28.4044 18.5329 28.9339L13.3211 32.7205C11.6914 33.9045 9.49859 32.3114 10.1211 30.3955L12.1118 24.2687C12.3902 23.4119 12.0852 22.4733 11.3564 21.9438L6.14461 18.1572C4.51489 16.9731 5.35245 14.3954 7.36691 14.3954H13.809C14.7099 14.3954 15.5083 13.8153 15.7867 12.9585L17.7775 6.83165Z" fill="#FFBE00"/>
<path d="M66.1498 6.83165C66.7723 4.91579 69.4827 4.91579 70.1052 6.83165L72.0959 12.9585C72.3743 13.8153 73.1727 14.3954 74.0736 14.3954H80.5157C82.5302 14.3954 83.3678 16.9731 81.738 18.1572L76.5263 21.9438C75.7974 22.4733 75.4925 23.4119 75.7708 24.2687L77.7616 30.3955C78.3841 32.3114 76.1913 33.9045 74.5616 32.7205L69.3498 28.9339C68.6209 28.4044 67.634 28.4044 66.9052 28.9339L61.6934 32.7205C60.0637 33.9045 57.8709 32.3114 58.4934 30.3955L60.4841 24.2687C60.7625 23.4119 60.4575 22.4733 59.7287 21.9438L54.5169 18.1572C52.8872 16.9731 53.7248 14.3954 55.7392 14.3954H62.1813C63.0822 14.3954 63.8807 13.8153 64.159 12.9585L66.1498 6.83165Z" fill="#FFBE00"/>
<path d="M114.523 6.8319C115.145 4.91604 117.856 4.91604 118.478 6.8319L120.469 12.9587C120.747 13.8155 121.546 14.3956 122.446 14.3956H128.889C130.903 14.3956 131.741 16.9734 130.111 18.1574L124.899 21.944C124.17 22.4735 123.865 23.4122 124.144 24.269L126.134 30.3958C126.757 32.3116 124.564 33.9048 122.934 32.7207L117.723 28.9341C116.994 28.4046 116.007 28.4046 115.278 28.9341L110.066 32.7207C108.436 33.9048 106.244 32.3116 106.866 30.3958L108.857 24.269C109.135 23.4122 108.83 22.4735 108.102 21.944L102.89 18.1574C101.26 16.9734 102.098 14.3956 104.112 14.3956H110.554C111.455 14.3956 112.253 13.8155 112.532 12.9587L114.523 6.8319Z" fill="#FFBE00"/>
<path d="M162.895 6.8319C163.517 4.91604 166.228 4.91604 166.85 6.8319L168.841 12.9587C169.119 13.8155 169.918 14.3956 170.819 14.3956H177.261C179.275 14.3956 180.113 16.9734 178.483 18.1574L173.271 21.944C172.542 22.4735 172.237 23.4122 172.516 24.269L174.506 30.3958C175.129 32.3116 172.936 33.9048 171.306 32.7207L166.095 28.9341C165.366 28.4046 164.379 28.4046 163.65 28.9341L158.438 32.7207C156.809 33.9048 154.616 32.3116 155.238 30.3958L157.229 24.269C157.507 23.4122 157.202 22.4735 156.474 21.944L151.262 18.1574C149.632 16.9734 150.47 14.3956 152.484 14.3956H158.926C159.827 14.3956 160.626 13.8155 160.904 12.9587L162.895 6.8319Z" fill="#FFBE00"/>
<path d="M211.267 6.8319C211.889 4.91604 214.6 4.91604 215.222 6.8319L217.213 12.9587C217.491 13.8155 218.29 14.3956 219.191 14.3956H225.633C227.647 14.3956 228.485 16.9734 226.855 18.1574L221.643 21.944C220.915 22.4735 220.61 23.4122 220.888 24.269L222.879 30.3958C223.501 32.3116 221.308 33.9048 219.679 32.7207L214.467 28.9341C213.738 28.4046 212.751 28.4046 212.022 28.9341L206.811 32.7207C205.181 33.9048 202.988 32.3116 203.611 30.3958L205.601 24.269C205.88 23.4122 205.575 22.4735 204.846 21.944L199.634 18.1574C198.004 16.9734 198.842 14.3956 200.856 14.3956H207.299C208.199 14.3956 208.998 13.8155 209.276 12.9587L211.267 6.8319Z" fill="#FFBE00"/>
</svg>
