<svg width="17" height="21" viewBox="0 0 17 21" fill="none" xmlns="http://www.w3.org/2000/svg">
<path d="M5.69225 1.75V0.25H11.3077V1.75H5.69225ZM7.75 12.8077H9.25V7.19225H7.75V12.8077ZM8.5 20.5C7.33083 20.5 6.23083 20.2769 5.2 19.8307C4.16917 19.3846 3.26792 18.7756 2.49625 18.0038C1.72442 17.2321 1.11542 16.3308 0.66925 15.3C0.223083 14.2692 0 13.1692 0 12C0 10.8308 0.223083 9.73083 0.66925 8.7C1.11542 7.66917 1.72442 6.76792 2.49625 5.99625C3.26792 5.22442 4.16917 4.61542 5.2 4.16925C6.23083 3.72308 7.33083 3.5 8.5 3.5C9.50133 3.5 10.4657 3.66992 11.3932 4.00975C12.3207 4.34942 13.182 4.83592 13.977 5.46925L15.223 4.22325L16.2768 5.277L15.0307 6.523C15.6641 7.318 16.1506 8.17925 16.4902 9.10675C16.8301 10.0343 17 10.9987 17 12C17 13.1692 16.7769 14.2692 16.3307 15.3C15.8846 16.3308 15.2756 17.2321 14.5038 18.0038C13.7321 18.7756 12.8308 19.3846 11.8 19.8307C10.7692 20.2769 9.66917 20.5 8.5 20.5ZM8.5 19C10.4333 19 12.0833 18.3167 13.45 16.95C14.8167 15.5833 15.5 13.9333 15.5 12C15.5 10.0667 14.8167 8.41667 13.45 7.05C12.0833 5.68333 10.4333 5 8.5 5C6.56667 5 4.91667 5.68333 3.55 7.05C2.18333 8.41667 1.5 10.0667 1.5 12C1.5 13.9333 2.18333 15.5833 3.55 16.95C4.91667 18.3167 6.56667 19 8.5 19Z" fill="#1F1F1F"/>
</svg>
